<svg width="83" height="96" xmlns="http://www.w3.org/2000/svg" xmlns:xlink="http://www.w3.org/1999/xlink" xml:space="preserve" overflow="hidden"><g transform="translate(-914 -339)"><path d="M66.4 54.9875C62.5958 51.875 57.7542 49.8 52.9125 48.4167 49.4542 47.3792 45.65 46.6875 41.5 46.6875 37.6958 46.6875 33.8917 47.3792 30.0875 48.4167 25.2458 49.8 20.4042 52.2208 16.6 54.9875 14.8708 56.3708 13.8333 58.4458 13.8333 60.5208L13.8333 74.3542 69.1667 74.3542 69.1667 60.5208C69.1667 58.4458 68.1292 56.3708 66.4 54.9875Z" fill="#FFFFFF" transform="matrix(1 0 0 1.15663 914 339)"/><path d="M28.0125 17.6375C28.5312 17.6375 28.9635 17.4646 29.2229 17.1187L29.2229 17.1187C32.4219 14.0063 36.7448 12.1042 41.5 12.1042 51.0104 12.1042 58.7917 19.8854 58.7917 29.3958L58.7917 33.3729 48.849 36.6583C48.4167 36.4854 47.9844 36.3125 47.5521 36.3125 46.0823 36.3125 44.9583 37.4365 44.9583 38.9062 44.9583 40.376 46.0823 41.5 47.5521 41.5 48.5896 41.5 49.5406 40.8948 49.9729 39.9437L63.7198 35.3615C64.4115 35.1021 64.9302 34.4969 64.9302 33.7188L64.9302 25.9375C64.9302 24.9865 64.1521 24.2083 63.201 24.2083L61.6448 24.2083C59.3104 15.3031 51.1833 8.64583 41.5 8.64583 35.8802 8.64583 30.7792 10.8938 26.975 14.525 26.5427 14.8708 26.2833 15.3031 26.2833 15.9083 26.2833 16.8594 27.0615 17.6375 28.0125 17.6375Z" fill="#FFFFFF" transform="matrix(1 0 0 1.15663 914 339)"/><path d="M55.2469 30.8656C55.3333 30.3469 55.3333 29.9146 55.3333 29.3958 55.3333 21.7875 49.1083 15.5625 41.5 15.5625 33.8917 15.5625 27.6667 21.7875 27.6667 29.3958 27.6667 37.0042 33.8917 43.2292 41.5 43.2292 41.7594 43.2292 42.1052 43.2292 42.3646 43.1427L42.3646 38.9062 42.3646 38.9062C42.3646 38.1281 42.5375 37.35 42.8833 36.5719 43.4885 35.3615 44.526 34.4104 45.9094 33.9781L55.2469 30.8656Z" fill="#FFFFFF" transform="matrix(1 0 0 1.15663 914 339)"/></g></svg>