<svg width="82" height="96" xmlns="http://www.w3.org/2000/svg" xmlns:xlink="http://www.w3.org/1999/xlink" xml:space="preserve" overflow="hidden"><g transform="translate(-156 -339)"><path d="M29.5456 55.0169 19.791 45.2708 29.5456 35.5248 31.9544 37.9335 24.6256 45.2708 31.9544 52.6081 29.5456 55.0169Z" fill="#FFFFFF" transform="matrix(1 0 0 1.17073 156 339)"/><path d="M52.4544 55.0169 50.0456 52.6081 57.3744 45.2708 50.0456 37.9335 52.4544 35.5248 62.209 45.2708 52.4544 55.0169Z" fill="#FFFFFF" transform="matrix(1 0 0 1.17073 156 339)"/><path d="M30.89 44.923 52.6716 44.923 52.6716 48.4094 30.89 48.4094Z" fill="#FFFFFF" transform="matrix(0.375182 -1.05989 0.905321 0.439237 139.019 416.33)"/><path d="M6.83333 14.5208 6.83333 67.4792 75.1667 67.4792 75.1667 14.5208ZM65.7708 19.6458C66.7143 19.6458 67.4792 20.4107 67.4792 21.3542 67.4792 22.2977 66.7143 23.0625 65.7708 23.0625 64.8273 23.0625 64.0625 22.2977 64.0625 21.3542 64.0625 20.4107 64.8273 19.6458 65.7708 19.6458ZM59.7917 19.6458C60.7352 19.6458 61.5 20.4107 61.5 21.3542 61.5 22.2977 60.7352 23.0625 59.7917 23.0625 58.8482 23.0625 58.0833 22.2977 58.0833 21.3542 58.0833 20.4107 58.8482 19.6458 59.7917 19.6458ZM53.8125 19.6458C54.756 19.6458 55.5208 20.4107 55.5208 21.3542 55.5208 22.2977 54.756 23.0625 53.8125 23.0625 52.869 23.0625 52.1042 22.2977 52.1042 21.3542 52.1042 20.4107 52.869 19.6458 53.8125 19.6458ZM70.0417 62.3542 11.9583 62.3542 11.9583 28.1875 70.0417 28.1875Z" fill="#FFFFFF" transform="matrix(1 0 0 1.17073 156 339)"/></g></svg>