<svg width="82" height="96" xmlns="http://www.w3.org/2000/svg" xmlns:xlink="http://www.w3.org/1999/xlink" xml:space="preserve" overflow="hidden"><g transform="translate(-341 -340)"><path d="M77.3875 31.0063 72.9458 29.3833 72.9458 20.0729 77.3875 18.1938 47.3208 7.08958 10.7625 19.9021C7.26042 21.6104 7.175 26.3083 7.175 30.1521 7.175 31.4333 7.34583 32.7146 7.60208 33.9104 4.69792 35.7896 4.6125 40.1458 4.6125 43.8187 4.6125 46.8083 5.29583 49.5417 7.175 51.25 6.74792 52.7021 7.00417 54.4958 7.00417 56.6313 7.00417 60.475 8.02917 63.9771 11.4458 65.1729L35.1917 74.9958 77.2167 57.5708 72.775 55.9479 72.775 46.5521 77.2167 44.6729 70.3833 42.1104 70.3833 33.9104 77.3875 31.0063ZM11.7875 25.8813 35.5333 35.1917 69.6146 21.4396 69.6146 28.7854 35.5333 42.9646 11.7875 33.5687 11.7875 25.8813ZM69.4438 55.35 35.3625 69.4438 11.5312 60.0479 11.5312 53.3854 32.8 62.0979 69.5292 47.5771 69.4438 55.35ZM67.0521 42.5375 32.9708 56.6313 9.225 47.2354 9.225 39.5479 33.6542 49.2854 67.1375 35.2771 67.1375 42.5375Z" fill="#FFFFFF" transform="matrix(1 0 0 1.17073 341 340)"/></g></svg>