<svg width="83" height="96" xmlns="http://www.w3.org/2000/svg" xmlns:xlink="http://www.w3.org/1999/xlink" xml:space="preserve" overflow="hidden"><g transform="translate(-544 -339)"><path d="M27.5672 28.3678 64.3726 28.3678 64.3726 24.3527C64.3726 22.7292 63.0565 21.4131 61.433 21.4131L39.4051 21.4131 31.3273 16.0527C30.8443 15.74 30.2864 15.5623 29.7114 15.5383L15.9083 15.5383C14.2848 15.5383 12.9688 16.8544 12.9688 18.4779L12.9688 55.131 12.9981 55.131 22.7247 31.5011C23.5937 29.6051 25.4817 28.3836 27.5672 28.3678Z" fill="#FFFFFF" transform="matrix(1 0 0 1.15663 544 339)"/><path d="M49.2458 44.0479C53.9355 39.3606 61.1841 38.3962 66.936 41.6945L69.9534 35.2102C70.1507 34.8001 70.2514 34.3502 70.2474 33.8951 70.2559 32.3855 69.1194 31.1149 67.6182 30.9555L27.5802 30.9555C26.5048 30.9628 25.531 31.5927 25.0833 32.5706L15.1717 56.6631 45.1226 56.6631C44.4111 52.0414 45.9421 47.3571 49.2458 44.0479Z" fill="#FFFFFF" transform="matrix(1 0 0 1.15663 544 339)"/><path d="M54.748 49.5501C52.8874 51.4129 52.2469 54.1709 53.0958 56.6631L59.9666 56.6631 63.629 48.7954C60.8802 46.8511 57.1307 47.1686 54.748 49.5475Z" fill="#FFFFFF" transform="matrix(1 0 0 1.15663 544 339)"/><path d="M68.1975 45.8817C63.476 41.1534 55.8153 41.1478 51.0869 45.8693 46.759 50.191 46.3369 57.0628 50.1035 61.8817L48.2074 63.7777C47.1681 63.4962 46.0577 63.7909 45.2947 64.5507L39.7924 70.0529C38.6106 71.2347 38.6106 73.1507 39.7924 74.3326 40.9742 75.5144 42.8903 75.5144 44.0721 74.3326L49.5743 68.8303C50.3341 68.0673 50.6288 66.9569 50.3473 65.9176L52.2494 64.0155C57.5323 68.1062 65.1312 67.1396 69.2219 61.8567 72.9558 57.0347 72.5167 50.1873 68.1975 45.8817ZM66.3637 61.1658C62.6497 64.88 56.628 64.8801 52.914 61.1662 49.1998 57.4522 49.1996 51.4305 52.9136 47.7164 56.6276 44.0022 62.6493 44.0021 66.3634 47.7161 66.3635 47.7162 66.3636 47.7163 66.3637 47.7164 70.0718 51.4328 70.0718 57.4494 66.3637 61.1658Z" fill="#FFFFFF" transform="matrix(1 0 0 1.15663 544 339)"/></g></svg>